Patient4_TMGait_0pt6_02_right_11_EMG.mot
version=1
nRows=33
nColumns=33
inDegrees=no
endheader
time	1LAddLong	2LGlutMax	3LGlutMed	4LIliopsoas	5LSemiMemb	6LBicFemLong	7LRecFem	8LVastMed	9LVastLat	10LGasMed	11LTibAnt	12lTibPost	13LPeroneusLong	14LSol	15LExtDigLong	16LFlexDigLong	17RAddLong	18RGlutMax	19RGlutMed	20RIliopsoas	21RSemiMemb	22RBicFemLong	23RRecFem	24RVastMed	25RVastLat	26RGasMed	27RTibAnt	28RTibPost	29RPeroneusLong	30RSol	31RExtDigLong	32RFlexDigLong
14.198	0.011597	-0.015564	0.44083	-0.020142	0.017395	-0.069885	-0.30045	-0.006104	0.35263	-0.043793	0.14267	0.002441	-0.6488	-0.08316	-0.23148	-0.00473	-0.047913	-0.085297	1.6373	-0.11765	-0.023193	0.02594	-0.41153	-0.17899	-0.02655	0.01297	-0.90851	0.003967	0.29831	-0.27435	0.000763	0.011292
14.199	0.012817	-0.099335	0.4158	-0.002594	0.014038	-0.015564	-0.088806	-0.024414	0.37338	0.058136	-0.058899	0.005798	-0.017548	0.00885	-0.26779	-0.005646	-0.082245	-0.095673	0.76263	-0.012665	-0.001984	0.084076	-0.52643	-0.064697	-0.010529	0.007019	-0.56976	0.00351	-0.014954	-0.103	-0.000153	0.010223
14.2	0.01358	-0.13825	0.095367	0.006104	0.00824	-0.023346	0.10391	-0.038147	0.17639	0.1471	-0.082245	0.009613	0.098114	0.11856	-0.12253	-0.008698	-0.085449	-0.13077	0.49011	0.015259	0.20462	0.1178	-0.47638	-0.016022	0.014038	0.004272	-0.16052	0.00473	-0.16556	0.011902	0.001526	0.00351
14.201	-0.00473	-0.12177	0.11581	-0.001068	0.007019	0.11169	0.11749	-0.027008	-0.040588	0.17548	-0.091248	0.002747	0.030518	0.028076	0.11017	0.008087	-0.039063	-0.076752	0.41382	0.027618	0.25787	0.0737	-0.37888	0.020599	0.056458	0.001068	0.15137	0.003357	0.025635	0.046234	-0.003815	0.004272
14.202	-0.010071	-0.12314	0.14358	0.011902	0.010986	0.18372	0.083923	-0.024414	-0.11322	0.27771	-0.078125	-0.004578	-0.008698	-0.02594	0.30518	0.009003	-0.024109	-0.072937	0.37643	-0.003662	0.13382	0.023804	-0.21332	0.12405	0.1265	-0.002289	0.74249	0.00946	0.1886	-0.003052	-0.003052	0.006561
14.203	-0.000153	-0.092163	0.11612	0.003052	0.001373	0.29938	0.032806	-0.004272	-0.08728	0.13672	-0.28305	0.003967	0.080566	-0.034027	-0.037079	0.000458	-0.023346	-0.04303	0.43106	-0.007324	-0.049438	0.062866	-0.056458	0.11505	0.13733	-0.009766	0.74997	0.004883	0.069122	-0.019684	-0.003052	0.001068
14.204	0.004425	-0.082397	0.14847	-0.006714	-0.001526	0.26611	0.023956	-0.018158	-0.10773	-0.023651	-0.10269	0.001373	0.26032	-0.032654	0.054474	0.001678	-0.016937	-0.019836	0.42664	0.002899	-0.21912	0.15045	0.046082	0.11765	0.087738	-0.008545	-0.001526	0.007172	0.11017	-0.059052	-0.002747	0.005798
14.205	0.013275	-0.072784	0.14343	-0.013428	-0.001373	0.25604	0.073395	-0.009155	-0.001984	-0.091248	0.046387	-0.005035	0.055237	-0.072479	0.058899	0.000305	-0.003357	-0.051422	0.03952	0.007019	-0.29526	0.15289	0.035858	0.17471	0.042877	-0.012512	-0.49271	0.005035	0.16968	0.011444	-0.00351	0.00473
14.206	0.013885	-0.075684	0.14694	-0.021667	-0.003357	0.26855	0.071564	-0.017548	-0.021057	-0.028229	0.028534	-0.002441	-0.076599	-0.13565	-0.34805	0.013428	0.017853	-0.058594	-0.1001	0.008087	-0.36468	0.12009	-0.028992	0.15045	0.038605	-0.011597	-0.7103	0.00824	0.075836	0.13992	-0.003967	0.002899
14.207	0.010986	-0.079498	0.15503	-0.005493	-0.002747	0.06897	0.054169	-0.007324	-0.009308	-0.008087	0.036163	-0.009155	-0.11322	-0.14786	-0.46677	-0.002441	0.042419	-0.055084	-0.13504	-0.00061	-0.16464	0.10635	0.00885	0.10101	0.052795	-0.013428	-0.055847	0.005341	-0.071106	0.19089	-0.001221	-0.000916
14.208	0.007477	-0.083466	0.10117	0.02121	0.003815	-0.13977	0.016937	-0.005951	0.006866	0.012512	-0.072784	0.025787	-0.039825	-0.20371	-0.19379	-0.002441	0.021057	-0.040131	-0.19989	0.007324	0.35797	0.14435	0.086365	0.089264	0.028229	-0.005646	0.046082	0.005493	-0.1329	0.18066	-0.002441	-0.002594
14.209	0.007782	-0.10147	0.097504	0.025787	0.016479	-0.35294	0.007324	-0.002441	0.00473	-0.037384	-0.087128	0.0177	0.24765	-0.02655	0.11185	-0.007019	0.001068	-0.003052	-0.10696	-0.015869	0.41519	0.15457	0.085907	0.054016	0.036011	-0.004578	-0.32379	0.008698	-0.053711	0.21912	-0.002899	0.005035
14.21	0.011597	-0.11978	0.049133	0.016174	0.016174	-0.3035	0.049438	-0.008545	0.008087	-0.14679	-0.00412	0.006409	-0.067444	-0.066376	0.34393	-0.010986	-0.005798	-0.022888	-0.1294	-0.001526	0.15595	0.094147	0.041351	0.020447	0.017853	0.001221	-0.2243	0.008698	0.068817	0.20508	-0.001221	0.001678
14.211	0.006714	-0.15366	0.036163	0.06424	0.019379	-0.26627	0.035706	-0.006104	0.017853	-0.20203	0.054321	-0.003357	-0.3656	0.005798	0.053711	-0.003357	-0.003967	-0.075836	-0.071869	0.036774	0.055695	-0.081024	-0.04364	-0.011902	0.015106	0.001984	-0.087585	0.000305	0.16586	0.043182	-0.00473	0.000305
14.212	0.014191	-0.15778	0.08667	0.036774	0.023804	-0.18448	0.016632	-0.003204	0.019836	-0.1152	0.08728	-0.006256	-0.012817	0.11643	-0.097961	-0.008698	0.010223	-0.02121	0.011902	0.021667	-0.019379	-0.13489	-0.020905	-0.09079	0.000763	0.001373	0.086517	0.005493	-0.006561	-0.029907	-0.005035	0.000916
14.213	0.013428	-0.11719	0.079041	0.009308	0.026703	-0.11856	0.048065	0.001526	0.019836	-0.035553	0.060883	-0.007935	0.46158	0.1004	-0.19424	-0.013428	0.04425	-0.057373	-0.019836	-0.007172	0.002899	-0.093842	-0.028534	-0.077515	-0.001526	-0.001984	0.24933	0.005798	-0.2536	-0.057373	-0.00473	-0.002289
14.214	0.016327	-0.1355	0.077209	0.003204	0.030212	-0.09964	0.0383	-0.006104	0.012207	0.01709	0.082397	-0.00412	0.79804	0.034943	-0.084991	-0.009155	0.064697	-0.036469	-0.00351	-0.020599	0.035553	-0.13031	0.011292	-0.10742	-0.031433	-0.005646	0.37582	0.001068	-0.44357	-0.029144	-0.00473	-0.010223
14.215	0.014496	-0.14618	0.15884	-0.015411	0.022888	-0.006866	0.058289	0.003357	0.010529	-0.032349	0.070953	-0.013885	0.23483	0.016174	-0.13229	-0.006866	0.078125	-0.090637	0.021973	-0.019531	-0.007324	-0.20111	0.07782	-0.15045	-0.01297	-0.003052	0.52811	0.007477	-0.46326	-0.041351	-0.006714	-0.00061
14.216	0.014191	-0.17151	0.13153	-0.030212	0.014038	0.067902	0.070801	-0.003662	-0.002594	-0.009155	0.034637	-0.007019	-0.29221	-0.21378	-0.19257	-0.014343	0.056458	-0.066528	0.029602	-0.001068	-0.081482	-0.13245	0.112	-0.098419	0.007782	-0.005951	0.59235	-0.001526	-0.33936	-0.048981	-0.006104	0.002899
14.217	0.006409	-0.14038	0.10605	-0.012817	0.01358	0.14465	0.062866	-0.00473	0.005341	-0.032654	-0.001221	-0.003204	-0.009308	-0.13016	-0.093384	-0.003052	0.053406	-0.003204	-0.027466	-0.014343	-0.12177	-0.10437	0.17395	-0.14145	-0.024261	0.006866	0.1593	0.000916	-0.007172	-0.018311	-0.010681	0.003815
14.218	0.012054	-0.15182	0.028992	-0.007629	0.008545	0.19424	0.076599	-0.00946	-0.008698	-0.043793	-0.14313	0	0.19257	0.035706	0.088806	-0.016022	0.015106	-0.005493	-0.099335	0.007477	-0.14465	0.081177	0.19089	-0.12833	-0.054779	-0.001068	-0.21255	0	-0.033569	-0.000458	-0.002899	-0.001984
14.219	0.010529	-0.10132	0.02594	-0.00885	-0.007629	0.21637	0.088196	-0.006866	-0.012817	-0.032654	-0.14496	0.001526	-0.10681	0.13962	0.1239	-0.005341	-0.021515	0.016937	-0.13443	-0.014801	0.068817	0.21103	0.095978	-0.12161	-0.084839	-0.003815	-0.050507	0.007935	-0.2446	-0.019073	0.003662	-0.003815
14.22	0.009308	-0.097809	-0.023041	-0.030365	0.008392	0.17548	0.064697	-0.000916	-0.021973	-0.008392	0.007172	0.000916	-0.28458	0.048065	0.10666	-0.002899	-0.047607	-0.010071	-0.10483	-0.001221	0.022125	0.20813	-0.055389	-0.17853	-0.090942	-0.006714	0.11963	-0.003052	-0.33157	-0.067902	-0.004425	-0.003815
14.221	0.012512	-0.09201	0.07309	-0.013885	0.011444	-0.10132	0.060883	-0.007019	-0.001526	-0.000153	0.17029	-0.000763	-0.14511	0.046997	0.068817	-0.01236	-0.050201	-0.005798	0.077057	-0.007477	-0.080109	0.11185	-0.084381	-0.21393	-0.082245	-0.002289	0.16541	0.000305	-0.26123	-0.08606	-0.000763	0.001068
14.222	0.009155	-0.09079	0.062866	0.019379	0.022278	-0.23346	0.071716	0.004272	-0.040131	-0.037994	0.32638	0.005798	-0.060272	0.13229	0.02533	-0.009766	-0.049133	0.034485	-0.10468	-0.02182	-0.097656	0.041656	-0.086975	-0.27847	-0.077515	0.006714	-0.10284	-0.000763	-0.12344	-0.06073	-0.003204	-0.003357
14.223	0.012512	-0.10025	0.010529	0.021362	0.032196	-0.23773	0.047607	0.004272	-0.037079	-0.069733	0.18494	0.005341	-0.039978	0.14069	0.058899	0.00885	-0.040436	0.024567	-0.49088	-0.010986	-0.070038	-0.067902	-0.097351	-0.29068	-0.040741	0.008087	-0.36575	-0.003815	0.023193	-0.041962	-0.001984	-0.003204
14.224	0.00824	-0.067749	-0.046082	0.004883	0.048065	-0.094299	0.046234	-0.000153	-0.001221	-0.071106	-0.10574	0.007782	0.076752	-0.011139	-0.024567	-0.017242	0.010071	0.025787	-0.7312	-0.00412	-0.097351	-0.17548	-0.10086	-0.24612	-0.019989	0.00946	-0.31189	0.000916	0.050201	0.01358	-0.005341	-0.000305
14.225	0.004578	-0.089722	-0.097351	0.017853	0.039978	-0.032654	0.12741	0.000153	0.00946	-0.003662	-0.08316	0.008392	0.039825	-0.032959	-0.097656	-0.008392	0.059967	0.068054	-0.62912	-0.018158	-0.20096	-0.19974	-0.06012	-0.29159	0.007782	0.008698	-0.11688	-0.000916	0.08606	0.010681	-0.002747	0.004578
14.226	0.005951	-0.072784	0.025635	-0.015717	0.026093	-0.099487	0.17288	0.006714	-0.055695	0.13046	-0.075989	0.009918	0.12924	-0.14664	-0.041199	-0.00061	0.061951	0.13031	-0.13489	-0.087891	-0.37354	-0.12497	-0.068665	-0.25528	0.039215	-0.002441	-0.005646	-0.000916	0.034943	-0.02243	-0.005951	-0.002899
14.227	0.000153	-0.079803	0.07431	-0.000916	0.021515	-0.01358	0.1474	-0.003967	-0.06134	0.16235	-0.059204	0.010071	0.15076	-0.11139	0.24002	0.010681	0.019226	0.010986	0.69397	-0.071564	-0.53406	-0.006866	-0.066986	0.049744	0.15762	-0.014954	0.098419	-0.008087	-0.011749	-0.1178	-0.003967	-0.007782
14.228	0.020294	-0.089111	0.080566	0.021057	0.018616	0.10544	0.12512	-0.003662	-0.049133	0.14145	-0.030365	0.007172	0.25146	-0.11444	0.28336	0.018158	-0.062256	-0.11612	0.83267	-0.067902	-0.051727	0.055084	0.014191	0.2385	0.26932	-0.018616	0.19623	0.001068	-0.031738	-0.083466	-0.006409	-0.010986
14.229	-0.045471	-0.10864	0.034027	0.021362	0.02594	0.11643	0.062714	0.003204	-0.11292	0.042877	-0.072174	0.011139	0.86075	-0.14557	-0.009766	0.004425	-0.10651	-0.20233	0.25269	0.015106	0.4657	0.10056	0.13748	0.28656	0.24109	-0.021362	0.17792	0	-0.11917	-0.075531	-0.007019	-0.015259
14.23	0.029755	-0.11978	-0.012665	0.03006	0.023651	0.099182	0.056915	-0.012665	-0.14374	-0.072174	0.071259	0.011139	0.032959	-0.14923	0.014801	-0.016174	-0.097351	-0.25589	-0.26962	0.1152	0.27695	0.021362	0.073395	0.19821	0.17364	-0.017395	-0.10559	0	-0.18906	-0.075531	-0.004425	-0.011902
